<svg version="1.1" xmlns="http://www.w3.org/2000/svg" viewBox="0 0 124.79998779296875 154.40000915527344" width="124.79998779296875" height="154.40000915527344">
  <!-- svg-source:excalidraw -->
  
  <defs>
    <style class="style-fonts">
      @font-face {
        font-family: "Virgil";
        src: url("https://excalidraw.com/Virgil.woff2");
      }
      @font-face {
        font-family: "Cascadia";
        src: url("https://excalidraw.com/Cascadia.woff2");
      }
    </style>
  </defs>
  <g stroke-linecap="round" transform="translate(10 10) rotate(0 52.399993896484375 67.20000457763672)"><path d="M36.3 4.1 C43.4 0.15, 53.12 -0.09, 61.06 1.42 C69 2.93, 77.52 7.01, 83.93 13.13 C90.34 19.25, 96.17 28.57, 99.53 38.15 C102.88 47.72, 104.51 60.05, 104.07 70.59 C103.62 81.12, 100.66 92.44, 96.86 101.36 C93.05 110.29, 87.89 118.82, 81.22 124.14 C74.56 129.47, 65.14 132.42, 56.87 133.31 C48.6 134.2, 39.28 133.31, 31.61 129.47 C23.94 125.63, 15.96 118.44, 10.84 110.29 C5.72 102.13, 2.25 91.03, 0.9 80.55 C-0.45 70.07, 0.56 57.3, 2.74 47.43 C4.92 37.55, 7.57 28.8, 14.01 21.29 C20.45 13.78, 35.97 5.58, 41.37 2.38 C46.78 -0.81, 46.34 1.21, 46.46 2.1 M32.77 4.46 C39.28 0.12, 48.62 0.14, 56.84 1.29 C65.06 2.44, 75.34 5.83, 82.1 11.39 C88.86 16.94, 93.73 25.62, 97.4 34.61 C101.07 43.61, 103.77 54.82, 104.1 65.34 C104.42 75.86, 102.88 88.22, 99.38 97.73 C95.87 107.24, 89.5 116.17, 83.07 122.38 C76.64 128.6, 68.88 133.79, 60.82 135.04 C52.76 136.29, 42.42 133.53, 34.69 129.88 C26.96 126.23, 19.94 120.95, 14.41 113.15 C8.89 105.35, 3.8 93.45, 1.54 83.06 C-0.73 72.68, -1.27 60.97, 0.82 50.84 C2.91 40.71, 8.45 29.74, 14.07 22.29 C19.7 14.84, 31.47 8.67, 34.58 6.14 C37.68 3.61, 32.42 6.5, 32.72 7.1" stroke="#000000" stroke-width="1" fill="none"></path></g></svg>