<svg version="1.1" xmlns="http://www.w3.org/2000/svg" viewBox="0 0 334.82716693062633 217.9233751911064" width="334.82716693062633" height="217.9233751911064">
  <!-- svg-source:excalidraw -->
  
  <defs>
    <style class="style-fonts">
      @font-face {
        font-family: "Virgil";
        src: url("https://excalidraw.com/Virgil.woff2");
      }
      @font-face {
        font-family: "Cascadia";
        src: url("https://excalidraw.com/Cascadia.woff2");
      }
    </style>
  </defs>
  <g stroke-linecap="round" transform="translate(125.41623166234234 24.723378242864214) rotate(0 52.399993896484375 67.20000457763672)"><path d="M36.3 4.1 C43.4 0.15, 53.12 -0.09, 61.06 1.42 C69 2.93, 77.52 7.01, 83.93 13.13 C90.34 19.25, 96.17 28.57, 99.53 38.15 C102.88 47.72, 104.51 60.05, 104.07 70.59 C103.62 81.12, 100.66 92.44, 96.86 101.36 C93.05 110.29, 87.89 118.82, 81.22 124.14 C74.56 129.47, 65.14 132.42, 56.87 133.31 C48.6 134.2, 39.28 133.31, 31.61 129.47 C23.94 125.63, 15.96 118.44, 10.84 110.29 C5.72 102.13, 2.25 91.03, 0.9 80.55 C-0.45 70.07, 0.56 57.3, 2.74 47.43 C4.92 37.55, 7.57 28.8, 14.01 21.29 C20.45 13.78, 35.97 5.58, 41.37 2.38 C46.78 -0.81, 46.34 1.21, 46.46 2.1 M32.77 4.46 C39.28 0.12, 48.62 0.14, 56.84 1.29 C65.06 2.44, 75.34 5.83, 82.1 11.39 C88.86 16.94, 93.73 25.62, 97.4 34.61 C101.07 43.61, 103.77 54.82, 104.1 65.34 C104.42 75.86, 102.88 88.22, 99.38 97.73 C95.87 107.24, 89.5 116.17, 83.07 122.38 C76.64 128.6, 68.88 133.79, 60.82 135.04 C52.76 136.29, 42.42 133.53, 34.69 129.88 C26.96 126.23, 19.94 120.95, 14.41 113.15 C8.89 105.35, 3.8 93.45, 1.54 83.06 C-0.73 72.68, -1.27 60.97, 0.82 50.84 C2.91 40.71, 8.45 29.74, 14.07 22.29 C19.7 14.84, 31.47 8.67, 34.58 6.14 C37.68 3.61, 32.42 6.5, 32.72 7.1" stroke="#000000" stroke-width="1" fill="none"></path></g><g stroke-linecap="round" transform="translate(156.6162438693736 159.12338739813765) rotate(0 26.399993896484375 24.399993896484375)"><path d="M15.72 1.41 C20.46 -0.75, 28.44 0.19, 33.86 1.71 C39.28 3.23, 45.24 6.55, 48.24 10.55 C51.23 14.54, 52.31 20.54, 51.83 25.7 C51.35 30.85, 49.23 37.6, 45.36 41.5 C41.49 45.4, 34.33 48.61, 28.61 49.1 C22.89 49.58, 15.72 47.53, 11.04 44.4 C6.36 41.27, 2.05 35.3, 0.51 30.31 C-1.04 25.32, -1.21 19.24, 1.76 14.44 C4.74 9.64, 14.64 3.8, 18.35 1.5 C22.06 -0.8, 23.67 0.5, 24.03 0.64 M35.86 0.63 C41.36 1.91, 47.77 7.93, 50.68 12.79 C53.59 17.64, 54.49 24.55, 53.32 29.78 C52.14 35.01, 48.35 41.03, 43.62 44.16 C38.89 47.29, 30.7 48.87, 24.94 48.56 C19.19 48.24, 12.97 45.87, 9.09 42.27 C5.2 38.67, 2.26 32.04, 1.61 26.94 C0.96 21.84, 2.33 15.95, 5.17 11.68 C8.01 7.41, 13.52 2.88, 18.64 1.33 C23.76 -0.22, 32.98 2.33, 35.92 2.36 C38.86 2.38, 36.45 1.42, 36.28 1.49" stroke="#000000" stroke-width="1" fill="none"></path></g><g stroke-linecap="round"><g transform="translate(129.61621335179547 62.32336908759078) rotate(0 -25.448617735286263 -24.856700002248402)"><path d="M0.88 -0.5 C-7.57 -8.41, -42.29 -39.45, -51.23 -47.4 M-0.12 -1.82 C-8.61 -10.07, -43.41 -41.68, -51.77 -49.21" stroke="#000000" stroke-width="1" fill="none"></path></g></g><mask></mask><g stroke-linecap="round"><g transform="translate(127.66483719059732 71.9800416240189) rotate(0 -25.184443677216763 -20.86998395845295)"><path d="M-0.1 0.34 C-8.55 -6.75, -41.99 -35.13, -50.27 -42.08 M-1.61 -0.52 C-9.7 -7.49, -39.74 -34.23, -47.91 -40.8" stroke="#000000" stroke-width="1" fill="none"></path></g></g><mask></mask><g stroke-linecap="round"><g transform="translate(79.81622555882672 13.523381294622027) rotate(0 -34.6118615543144 22.898122210958974)"><path d="M0.59 -0.11 C-9.59 5.37, -50.28 25.34, -61.83 33.01 C-73.37 40.69, -67.62 43.81, -68.69 45.94 M-0.56 -1.22 C-10.31 4.4, -48.11 26.2, -59.65 34.24 C-71.2 42.28, -68.4 44.97, -69.82 47.02" stroke="#000000" stroke-width="1" fill="none"></path></g></g><mask></mask><g stroke-linecap="round"><g transform="translate(77.0791798896064 27.47221843892447) rotate(185.68629126958413 -31.918082515643192 17.972514647411117)"><path d="M-0.99 0.86 C-3.26 1.06, -2.26 -6.18, -12.74 0.08 C-23.22 6.34, -55.38 32.29, -63.85 38.42 M0.69 0.27 C-1.26 0.68, 0.47 -4.94, -10.4 1.07 C-21.27 7.08, -55.76 30.26, -64.52 36.32" stroke="#000000" stroke-width="1" fill="none"></path></g></g><mask></mask><g stroke-linecap="round"><g transform="translate(127.59914521674312 120.84485349020582) rotate(354.9259001022652 -21.473641208072394 -21.18169120501736)"><path d="M-0.29 -0.38 C-7.61 -7.2, -36.79 -33.5, -44.02 -40.29 M1.76 -1.62 C-5.67 -8.84, -37.08 -35.62, -44.71 -41.98" stroke="#000000" stroke-width="1" fill="none"></path></g></g><mask></mask><g stroke-linecap="round"><g transform="translate(132.3830560795517 134.19894519128644) rotate(354.9259001022652 -23.398787528981188 -20.054677826312513)"><path d="M0.51 0.82 C-7.24 -5.94, -38.62 -34.13, -46.79 -40.93 M-0.69 0.2 C-8.5 -6.32, -39.73 -32.39, -47.3 -39.4" stroke="#000000" stroke-width="1" fill="none"></path></g></g><mask></mask><g stroke-linecap="round"><g transform="translate(85.06584123954207 83.48524371151484) rotate(354.9259001022652 -28.839185641804647 19.63949113239235)"><path d="M0.83 -0.02 C-8.08 4.79, -43.32 23.14, -53 29.69 C-62.67 36.24, -56.53 37.76, -57.23 39.28 M-0.19 -1.08 C-8.78 3.33, -41.23 21.14, -50.77 28.05 C-60.32 34.95, -56.52 38.46, -57.47 40.36" stroke="#000000" stroke-width="1" fill="none"></path></g></g><mask></mask><g stroke-linecap="round"><g transform="translate(83.40632493202583 95.40783391763102) rotate(180.61219137184924 -26.629531351453352 15.407887612329432)"><path d="M-0.93 0.92 C-2.62 1, -0.49 -4.61, -9.3 0.5 C-18.12 5.62, -46.1 26.45, -53.81 31.62 M0.78 0.35 C-1.05 0.6, -0.59 -3.55, -9.72 1.8 C-18.86 7.16, -46.37 27.42, -54.04 32.47" stroke="#000000" stroke-width="1" fill="none"></path></g></g><mask></mask><g stroke-linecap="round"><g transform="translate(227.81625607640484 65.52338129462203) rotate(0 24.833929699133165 -17.992419099062673)"><path d="M0.61 0.2 C8.87 -5.64, 42.07 -30.09, 50.2 -36.18 M-0.53 -0.75 C7.57 -6.37, 41.39 -29.34, 49.57 -35.16" stroke="#000000" stroke-width="1" fill="none"></path></g></g><mask></mask><g stroke-linecap="round"><g transform="translate(219.81625607640484 54.32336908759078) rotate(0 32.0648466921576 -21.298900572976535)"><path d="M-0.99 -0.58 C8.27 -6.99, 44.09 -32.21, 55.11 -38.83 C66.13 -45.45, 63.2 -39.75, 65.12 -40.3 M0.69 1.73 C9.92 -5.01, 44.13 -33.39, 54.7 -40.69 C65.27 -48, 62.59 -42, 64.11 -42.11" stroke="#000000" stroke-width="1" fill="none"></path></g></g><mask></mask><g stroke-linecap="round"><g transform="translate(275.840074998964 27.932457929212035) rotate(0 20.86789419865039 29.51298812078261)"><path d="M0.58 1.08 C5.67 9.06, 24.08 38.15, 31.03 47.52 C37.99 56.89, 40.59 55.68, 42.31 57.29 M-0.57 0.6 C4.3 8.8, 22.86 39.34, 29.95 48.98 C37.03 58.62, 40.01 56.91, 41.93 58.43" stroke="#000000" stroke-width="1" fill="none"></path></g></g><mask></mask><g stroke-linecap="round"><g transform="translate(281.4340224666211 11.932488781460052) rotate(0 21.305412089725223 37.63563183673038)"><path d="M0.44 1.01 C7.1 11.46, 34.87 50.92, 41.14 63.01 C47.42 75.09, 38.64 71.92, 38.09 73.5 M-0.78 0.5 C5.67 11.03, 34.08 51.64, 40.53 64.02 C46.99 76.4, 38.27 73.27, 37.95 74.77" stroke="#000000" stroke-width="1" fill="none"></path></g></g><mask></mask><g stroke-linecap="round"><g transform="translate(222.01705089966777 131.5957352486074) rotate(2.8707382288537757 22.357105728529632 -14.932780658851186)"><path d="M1.04 -0.55 C8.32 -5.8, 37.47 -26.71, 44.58 -31.64 M0.13 1.78 C7.21 -3.31, 36.79 -24.85, 43.89 -30.48" stroke="#000000" stroke-width="1" fill="none"></path></g></g><mask></mask><g stroke-linecap="round"><g transform="translate(227.55474567195535 119.81303493889203) rotate(2.8707382288537757 23.333493424345335 -17.974243618104737)"><path d="M0.5 -4.11 C6.53 -8.52, 29.84 -25.68, 37.23 -30.41 C44.63 -35.15, 43.61 -32.18, 44.87 -32.51 M-0.7 -1.87 C5.05 -6.57, 28.08 -27.23, 36.09 -32.11 C44.1 -36.99, 45.96 -31.29, 47.37 -31.14" stroke="#000000" stroke-width="1" fill="none"></path></g></g><mask></mask><g stroke-linecap="round"><g transform="translate(264.5217699717152 100.652552647594) rotate(2.8707382288537757 17.017594642214533 23.643011577618864)"><path d="M-0.37 0.81 C3.54 7.22, 18.58 30.27, 23.97 37.75 C29.36 45.23, 30.3 44.49, 31.97 45.68 M1.63 0.19 C5.88 6.88, 20.83 31.53, 26.29 39.34 C31.75 47.16, 33.59 46.03, 34.41 47.09" stroke="#000000" stroke-width="1" fill="none"></path></g></g><mask></mask><g stroke-linecap="round"><g transform="translate(269.29966615259156 88.25226992505134) rotate(2.8707382288537757 17.122288649910104 28.975836092009615)"><path d="M-0.75 0.1 C4.5 8.42, 25.94 41.15, 31.12 50.72 C36.29 60.29, 30.54 56.45, 30.31 57.53 M1.06 -0.89 C6.72 7.58, 28.53 42.45, 33.37 52.35 C38.22 62.26, 30.66 57.62, 30.16 58.53" stroke="#000000" stroke-width="1" fill="none"></path></g></g><mask></mask><g stroke-linecap="round" transform="translate(163.8161950412486 54.32338434637984) rotate(0 4.0000152587890625 5.199989318847656)"><path d="M4.34 0.98 C5.26 1.09, 6.18 1.35, 6.81 2.07 C7.44 2.79, 7.96 4.38, 8.13 5.28 C8.3 6.18, 8.47 6.63, 7.84 7.47 C7.21 8.31, 5.42 10, 4.35 10.33 C3.29 10.66, 2.09 9.99, 1.45 9.44 C0.81 8.9, 0.65 7.91, 0.5 7.04 C0.36 6.18, 0.21 5.28, 0.56 4.25 C0.92 3.23, 1.92 1.42, 2.62 0.88 C3.31 0.33, 4.33 0.96, 4.73 1 C5.13 1.04, 5.09 1.18, 5.02 1.1 M4.18 -1.22 C5.02 -1.09, 6.83 1.4, 7.48 2.36 C8.12 3.33, 8.21 3.71, 8.03 4.55 C7.86 5.4, 6.83 6.64, 6.42 7.44 C6.01 8.24, 6.28 8.98, 5.57 9.34 C4.85 9.69, 2.8 9.95, 2.11 9.56 C1.42 9.17, 1.86 7.9, 1.41 6.97 C0.96 6.04, -0.47 4.96, -0.6 3.99 C-0.72 3.01, -0.07 1.75, 0.64 1.13 C1.34 0.52, 2.89 0.32, 3.63 0.29 C4.36 0.25, 5.03 1.01, 5.05 0.91" stroke="#000000" stroke-width="1" fill="none"></path></g><g stroke-linecap="round" transform="translate(181.81617978245953 46.92335230292281) rotate(0 4.0000152587890625 5.199989318847656)"><path d="M4 0.6 C4.96 0.22, 6.28 -0.26, 6.78 0.11 C7.27 0.48, 6.72 1.78, 6.97 2.81 C7.22 3.83, 8.3 4.95, 8.27 6.26 C8.25 7.56, 7.62 9.98, 6.83 10.65 C6.03 11.33, 4.68 10.59, 3.52 10.29 C2.36 9.99, 0.5 9.87, -0.12 8.83 C-0.74 7.8, -0.44 5.17, -0.2 4.08 C0.05 2.99, 0.74 2.96, 1.35 2.28 C1.97 1.6, 3.03 0.42, 3.49 -0.02 C3.96 -0.46, 3.95 -0.63, 4.15 -0.38 M3.86 0.29 C4.49 -0.13, 5.45 -0.07, 5.92 0.27 C6.4 0.6, 6.52 1.57, 6.7 2.3 C6.89 3.04, 7.25 3.72, 7.02 4.68 C6.79 5.63, 5.69 7.05, 5.32 8.04 C4.95 9.04, 5.32 10.4, 4.8 10.65 C4.28 10.9, 2.96 10.1, 2.2 9.52 C1.45 8.95, 0.77 8.29, 0.27 7.21 C-0.22 6.13, -1.31 3.92, -0.78 3.02 C-0.26 2.13, 2.98 2.5, 3.42 1.84 C3.85 1.18, 2.03 -0.92, 1.83 -0.93" stroke="#000000" stroke-width="1" fill="none"></path></g><g stroke-linecap="round" transform="translate(148.41618588597515 70.92339807929) rotate(0 4.0000152587890625 5.199989318847656)"><path d="M5.22 -0.11 C5.87 0.24, 5.65 1.42, 6.21 2.22 C6.77 3.03, 8.45 3.72, 8.59 4.7 C8.72 5.68, 7.75 7.05, 7 8.1 C6.25 9.15, 4.76 10.87, 4.07 11 C3.39 11.13, 3.37 9.59, 2.88 8.88 C2.39 8.17, 1.4 7.66, 1.11 6.73 C0.83 5.8, 0.95 4.29, 1.19 3.28 C1.42 2.27, 1.81 1.12, 2.53 0.67 C3.25 0.22, 4.89 0.54, 5.51 0.59 C6.14 0.64, 6.39 0.99, 6.28 0.97 M5.04 0.3 C5.95 0.14, 7.52 -0.24, 8.05 0.76 C8.58 1.77, 8.17 5.12, 8.23 6.33 C8.29 7.53, 9.27 7.4, 8.42 8.01 C7.57 8.62, 4.07 9.6, 3.13 9.98 C2.2 10.35, 3.21 10.56, 2.8 10.27 C2.4 9.99, 1.2 9.56, 0.71 8.24 C0.23 6.92, -0.19 3.78, -0.11 2.35 C-0.03 0.92, 0.54 -0.13, 1.2 -0.34 C1.86 -0.56, 3.4 1, 3.84 1.04 C4.29 1.07, 3.89 -0.32, 3.87 -0.15" stroke="#000000" stroke-width="1" fill="none"></path></g><g stroke-linecap="round" transform="translate(182.21620419652203 64.92333704413375) rotate(0 4.0000152587890625 5.199989318847656)"><path d="M2.12 0.02 C2.87 -0.32, 4 0.77, 4.79 1.32 C5.58 1.87, 6.29 2.5, 6.87 3.31 C7.44 4.12, 8.29 5.2, 8.26 6.18 C8.22 7.16, 7.38 8.53, 6.65 9.18 C5.93 9.83, 4.67 10.19, 3.89 10.08 C3.1 9.98, 2.48 9.39, 1.96 8.55 C1.43 7.7, 1.11 5.92, 0.76 5.02 C0.4 4.13, -0.48 4.05, -0.16 3.17 C0.16 2.29, 2.04 0.14, 2.68 -0.24 C3.33 -0.63, 3.79 0.83, 3.7 0.87 M3.69 -0.59 C4.29 -0.46, 5.35 0.34, 6.17 1.23 C6.99 2.11, 8.43 3.24, 8.63 4.7 C8.83 6.16, 8.24 9.05, 7.37 9.99 C6.49 10.94, 4.08 10.65, 3.37 10.4 C2.66 10.15, 3.51 8.9, 3.11 8.51 C2.71 8.11, 1.37 9.1, 0.99 8.04 C0.62 6.97, 0.76 3.43, 0.87 2.1 C0.98 0.77, 1.05 0.37, 1.65 0.05 C2.25 -0.28, 3.77 0.22, 4.45 0.14 C5.12 0.06, 5.75 -0.3, 5.69 -0.41" stroke="#000000" stroke-width="1" fill="none"></path></g><g stroke-linecap="round" transform="translate(199.01619198949078 73.12341028632125) rotate(0 4.0000152587890625 5.199989318847656)"><path d="M4.31 -0.51 C5.31 -0.42, 7.56 0.98, 8.1 2.12 C8.64 3.27, 7.67 5.36, 7.55 6.35 C7.43 7.34, 8.04 7.33, 7.36 8.09 C6.68 8.84, 4.45 10.74, 3.49 10.89 C2.54 11.04, 2.33 9.82, 1.62 8.98 C0.91 8.13, -0.46 6.94, -0.77 5.8 C-1.09 4.66, -0.87 3.15, -0.25 2.15 C0.36 1.15, 1.88 -0.05, 2.92 -0.2 C3.95 -0.36, 5.56 1.06, 5.96 1.23 C6.35 1.4, 5.21 0.97, 5.28 0.81 M4.14 -0.4 C4.62 -0.35, 6.21 0.62, 6.85 1.77 C7.48 2.91, 8.08 5.42, 7.96 6.48 C7.83 7.54, 6.91 7.5, 6.1 8.14 C5.29 8.78, 3.93 10.1, 3.11 10.33 C2.3 10.57, 1.74 10.35, 1.22 9.56 C0.7 8.77, 0.32 6.8, -0.01 5.58 C-0.35 4.36, -1.14 2.86, -0.81 2.23 C-0.48 1.6, 0.78 2.29, 1.97 1.8 C3.16 1.31, 6.03 -0.22, 6.34 -0.7 C6.66 -1.17, 4.28 -1.51, 3.88 -1.04" stroke="#000000" stroke-width="1" fill="none"></path></g><g stroke-linecap="round" transform="translate(169.21623471410015 81.12337976874312) rotate(0 4.0000152587890625 5.199989318847656)"><path d="M2.6 0.3 C3.24 -0.25, 3.93 -0.87, 4.65 -0.56 C5.37 -0.25, 6.23 0.95, 6.93 2.16 C7.63 3.38, 9.01 5.72, 8.86 6.73 C8.72 7.75, 7.02 7.76, 6.08 8.25 C5.15 8.75, 3.85 9.59, 3.26 9.71 C2.66 9.83, 3.12 9.7, 2.49 9 C1.86 8.29, -0.04 6.63, -0.52 5.5 C-1.01 4.36, -0.92 2.92, -0.41 2.19 C0.1 1.46, 1.86 1.55, 2.53 1.14 C3.2 0.72, 3.38 -0.34, 3.59 -0.3 M3.33 -0.32 C4.38 -0.87, 6.03 -1.18, 6.77 -0.46 C7.5 0.26, 7.43 3.01, 7.75 4 C8.07 4.99, 8.97 4.56, 8.67 5.48 C8.37 6.4, 6.97 8.83, 5.95 9.51 C4.93 10.19, 3.19 9.52, 2.56 9.56 C1.93 9.6, 2.59 10.49, 2.18 9.73 C1.77 8.96, 0.28 6.12, 0.1 4.98 C-0.08 3.85, 0.84 3.74, 1.11 2.93 C1.38 2.13, 1.4 0.57, 1.72 0.13 C2.05 -0.31, 2.9 0.14, 3.06 0.31" stroke="#000000" stroke-width="1" fill="none"></path></g></svg>