<svg version="1.1" xmlns="http://www.w3.org/2000/svg" viewBox="0 0 240.2162194553111 215.6197932474222" width="240.2162194553111" height="215.6197932474222">
  <!-- svg-source:excalidraw -->
  
  <defs>
    <style class="style-fonts">
      @font-face {
        font-family: "Virgil";
        src: url("https://excalidraw.com/Virgil.woff2");
      }
      @font-face {
        font-family: "Cascadia";
        src: url("https://excalidraw.com/Cascadia.woff2");
      }
    </style>
  </defs>
  <g stroke-linecap="round" transform="translate(125.41623166234234 22.419796299180007) rotate(0 52.399993896484375 67.20000457763672)"><path d="M36.3 4.1 C43.4 0.15, 53.12 -0.09, 61.06 1.42 C69 2.93, 77.52 7.01, 83.93 13.13 C90.34 19.25, 96.17 28.57, 99.53 38.15 C102.88 47.72, 104.51 60.05, 104.07 70.59 C103.62 81.12, 100.66 92.44, 96.86 101.36 C93.05 110.29, 87.89 118.82, 81.22 124.14 C74.56 129.47, 65.14 132.42, 56.87 133.31 C48.6 134.2, 39.28 133.31, 31.61 129.47 C23.94 125.63, 15.96 118.44, 10.84 110.29 C5.72 102.13, 2.25 91.03, 0.9 80.55 C-0.45 70.07, 0.56 57.3, 2.74 47.43 C4.92 37.55, 7.57 28.8, 14.01 21.29 C20.45 13.78, 35.97 5.58, 41.37 2.38 C46.78 -0.81, 46.34 1.21, 46.46 2.1 M32.77 4.46 C39.28 0.12, 48.62 0.14, 56.84 1.29 C65.06 2.44, 75.34 5.83, 82.1 11.39 C88.86 16.94, 93.73 25.62, 97.4 34.61 C101.07 43.61, 103.77 54.82, 104.1 65.34 C104.42 75.86, 102.88 88.22, 99.38 97.73 C95.87 107.24, 89.5 116.17, 83.07 122.38 C76.64 128.6, 68.88 133.79, 60.82 135.04 C52.76 136.29, 42.42 133.53, 34.69 129.88 C26.96 126.23, 19.94 120.95, 14.41 113.15 C8.89 105.35, 3.8 93.45, 1.54 83.06 C-0.73 72.68, -1.27 60.97, 0.82 50.84 C2.91 40.71, 8.45 29.74, 14.07 22.29 C19.7 14.84, 31.47 8.67, 34.58 6.14 C37.68 3.61, 32.42 6.5, 32.72 7.1" stroke="#000000" stroke-width="1" fill="none"></path></g><g stroke-linecap="round" transform="translate(156.6162438693736 156.81980545445344) rotate(0 26.399993896484375 24.399993896484375)"><path d="M15.72 1.41 C20.46 -0.75, 28.44 0.19, 33.86 1.71 C39.28 3.23, 45.24 6.55, 48.24 10.55 C51.23 14.54, 52.31 20.54, 51.83 25.7 C51.35 30.85, 49.23 37.6, 45.36 41.5 C41.49 45.4, 34.33 48.61, 28.61 49.1 C22.89 49.58, 15.72 47.53, 11.04 44.4 C6.36 41.27, 2.05 35.3, 0.51 30.31 C-1.04 25.32, -1.21 19.24, 1.76 14.44 C4.74 9.64, 14.64 3.8, 18.35 1.5 C22.06 -0.8, 23.67 0.5, 24.03 0.64 M35.86 0.63 C41.36 1.91, 47.77 7.93, 50.68 12.79 C53.59 17.64, 54.49 24.55, 53.32 29.78 C52.14 35.01, 48.35 41.03, 43.62 44.16 C38.89 47.29, 30.7 48.87, 24.94 48.56 C19.19 48.24, 12.97 45.87, 9.09 42.27 C5.2 38.67, 2.26 32.04, 1.61 26.94 C0.96 21.84, 2.33 15.95, 5.17 11.68 C8.01 7.41, 13.52 2.88, 18.64 1.33 C23.76 -0.22, 32.98 2.33, 35.92 2.36 C38.86 2.38, 36.45 1.42, 36.28 1.49" stroke="#000000" stroke-width="1" fill="none"></path></g><g stroke-linecap="round"><g transform="translate(129.61621335179547 60.01978714390657) rotate(0 -25.448617735286263 -24.856700002248402)"><path d="M0.88 -0.5 C-7.57 -8.41, -42.29 -39.45, -51.23 -47.4 M-0.12 -1.82 C-8.61 -10.07, -43.41 -41.68, -51.77 -49.21" stroke="#000000" stroke-width="1" fill="none"></path></g></g><mask></mask><g stroke-linecap="round"><g transform="translate(127.66483719059732 69.67645968033469) rotate(0 -25.184443677216763 -20.86998395845295)"><path d="M-0.1 0.34 C-8.55 -6.75, -41.99 -35.13, -50.27 -42.08 M-1.61 -0.52 C-9.7 -7.49, -39.74 -34.23, -47.91 -40.8" stroke="#000000" stroke-width="1" fill="none"></path></g></g><mask></mask><g stroke-linecap="round"><g transform="translate(79.81622555882672 11.21979935093782) rotate(0 -34.6118615543144 22.898122210958974)"><path d="M0.59 -0.11 C-9.59 5.37, -50.28 25.34, -61.83 33.01 C-73.37 40.69, -67.62 43.81, -68.69 45.94 M-0.56 -1.22 C-10.31 4.4, -48.11 26.2, -59.65 34.24 C-71.2 42.28, -68.4 44.97, -69.82 47.02" stroke="#000000" stroke-width="1" fill="none"></path></g></g><mask></mask><g stroke-linecap="round"><g transform="translate(77.0791798896064 25.168636495240264) rotate(185.68629126958413 -31.918082515643192 17.972514647411117)"><path d="M-0.99 0.86 C-3.26 1.06, -2.26 -6.18, -12.74 0.08 C-23.22 6.34, -55.38 32.29, -63.85 38.42 M0.69 0.27 C-1.26 0.68, 0.47 -4.94, -10.4 1.07 C-21.27 7.08, -55.76 30.26, -64.52 36.32" stroke="#000000" stroke-width="1" fill="none"></path></g></g><mask></mask><g stroke-linecap="round"><g transform="translate(127.59914521674312 118.54127154652161) rotate(354.9259001022652 -21.473641208072394 -21.18169120501736)"><path d="M-0.29 -0.38 C-7.61 -7.2, -36.79 -33.5, -44.02 -40.29 M1.76 -1.62 C-5.67 -8.84, -37.08 -35.62, -44.71 -41.98" stroke="#000000" stroke-width="1" fill="none"></path></g></g><mask></mask><g stroke-linecap="round"><g transform="translate(132.3830560795517 131.89536324760223) rotate(354.9259001022652 -23.398787528981188 -20.054677826312513)"><path d="M0.51 0.82 C-7.24 -5.94, -38.62 -34.13, -46.79 -40.93 M-0.69 0.2 C-8.5 -6.32, -39.73 -32.39, -47.3 -39.4" stroke="#000000" stroke-width="1" fill="none"></path></g></g><mask></mask><g stroke-linecap="round"><g transform="translate(85.06584123954207 81.18166176783063) rotate(354.9259001022652 -28.839185641804647 19.63949113239235)"><path d="M0.83 -0.02 C-8.08 4.79, -43.32 23.14, -53 29.69 C-62.67 36.24, -56.53 37.76, -57.23 39.28 M-0.19 -1.08 C-8.78 3.33, -41.23 21.14, -50.77 28.05 C-60.32 34.95, -56.52 38.46, -57.47 40.36" stroke="#000000" stroke-width="1" fill="none"></path></g></g><mask></mask><g stroke-linecap="round"><g transform="translate(83.40632493202583 93.10425197394682) rotate(180.61219137184924 -26.629531351453352 15.407887612329432)"><path d="M-0.93 0.92 C-2.62 1, -0.49 -4.61, -9.3 0.5 C-18.12 5.62, -46.1 26.45, -53.81 31.62 M0.78 0.35 C-1.05 0.6, -0.59 -3.55, -9.72 1.8 C-18.86 7.16, -46.37 27.42, -54.04 32.47" stroke="#000000" stroke-width="1" fill="none"></path></g></g><mask></mask></svg>